<?xml version="1.0" standalone="no"?>
<!DOCTYPE svg PUBLIC "-//W3C//DTD SVG 20010904//EN"
 "http://www.w3.org/TR/2001/REC-SVG-20010904/DTD/svg10.dtd">
<svg version="1.0" xmlns="http://www.w3.org/2000/svg"
 width="560.000000pt" height="560.000000pt" viewBox="0 0 560.000000 560.000000"
 preserveAspectRatio="xMidYMid meet">
<metadata>
Created by potrace 1.11, written by Peter Selinger 2001-2013
</metadata>
<g transform="translate(0.000000,560.000000) scale(0.100000,-0.100000)"
fill="#000000" stroke="none">
<path d="M2650 4893 c-585 -63 -930 -430 -989 -1051 -5 -56 -7 -126 -4 -156 5
-52 5 -53 -28 -66 -46 -20 -96 -66 -122 -114 -21 -38 -22 -54 -22 -246 0 -192
1 -208 22 -246 34 -64 83 -102 164 -127 11 -4 18 -23 23 -63 8 -72 64 -240
107 -326 98 -195 262 -368 446 -469 l72 -40 3 -297 3 -297 27 -50 c27 -53 100
-127 143 -147 19 -8 45 -52 45 -74 0 -2 -21 -4 -47 -4 -42 0 -56 -6 -106 -46
l-58 -45 -32 24 c-185 141 -244 339 -155 519 l36 70 -50 -5 c-28 -4 -55 -10
-62 -15 -6 -5 -58 -19 -115 -32 -296 -62 -543 -200 -754 -419 -86 -90 -187
-226 -218 -293 -11 -25 -9 -31 40 -87 106 -122 259 -255 431 -373 453 -312
1027 -461 1576 -407 468 45 901 222 1289 527 85 68 315 297 315 315 0 20 -86
155 -147 229 -217 266 -518 447 -853 514 -47 9 -90 21 -96 26 -7 5 -35 11 -63
15 l-50 6 35 -71 c61 -121 56 -254 -13 -366 -28 -45 -103 -127 -145 -157 l-27
-20 -58 46 c-50 39 -64 45 -105 45 -27 0 -48 2 -48 4 0 21 26 65 43 73 47 22
125 103 148 155 23 51 24 62 27 345 l3 292 72 40 c184 101 348 274 446 469 43
86 99 254 107 326 5 40 12 59 23 63 81 25 130 63 164 127 21 38 22 54 22 246
0 192 -1 208 -22 246 -26 48 -76 94 -122 114 -33 13 -33 14 -28 66 3 30 1 100
-4 156 -62 690 -465 1065 -1134 1056 -66 0 -136 -3 -155 -5z m1475 -4314 c36
-28 64 -54 61 -56 -5 -5 -356 -41 -356 -36 0 27 100 118 159 145 31 14 71 -2
136 -53z"/>
</g>
</svg>
